<svg width="128" height="42" viewBox="0 0 128 42" fill="none" xmlns="http://www.w3.org/2000/svg">
<path d="M0 10H23C26.3137 10 29 12.6863 29 16V32.0761H6C2.68629 32.0761 0 29.3898 0 26.0761V10Z" fill="#087F5B"/>
<path d="M46.7699 31V10.6364H51.0753V27.4503H59.8054V31H46.7699ZM62.5771 31V15.7273H66.8129V31H62.5771ZM64.7049 13.7585C64.0752 13.7585 63.5349 13.5497 63.0842 13.1321C62.64 12.7079 62.418 12.2008 62.418 11.6108C62.418 11.0275 62.64 10.527 63.0842 10.1094C63.5349 9.68513 64.0752 9.47301 64.7049 9.47301C65.3346 9.47301 65.8716 9.68513 66.3157 10.1094C66.7665 10.527 66.9918 11.0275 66.9918 11.6108C66.9918 12.2008 66.7665 12.7079 66.3157 13.1321C65.8716 13.5497 65.3346 13.7585 64.7049 13.7585ZM84.4446 15.7273L79.1051 31H74.3324L68.9929 15.7273H73.4673L76.6392 26.6548H76.7983L79.9602 15.7273H84.4446ZM86.6122 31V15.7273H90.848V31H86.6122ZM88.7401 13.7585C88.1103 13.7585 87.5701 13.5497 87.1193 13.1321C86.6752 12.7079 86.4531 12.2008 86.4531 11.6108C86.4531 11.0275 86.6752 10.527 87.1193 10.1094C87.5701 9.68513 88.1103 9.47301 88.7401 9.47301C89.3698 9.47301 89.9067 9.68513 90.3509 10.1094C90.8016 10.527 91.027 11.0275 91.027 11.6108C91.027 12.2008 90.8016 12.7079 90.3509 13.1321C89.9067 13.5497 89.3698 13.7585 88.7401 13.7585ZM98.4769 22.1705V31H94.2411V15.7273H98.2781V18.4219H98.457C98.7951 17.5336 99.3619 16.831 100.157 16.3139C100.953 15.7902 101.917 15.5284 103.051 15.5284C104.111 15.5284 105.036 15.7604 105.825 16.2244C106.614 16.6884 107.227 17.3513 107.664 18.2131C108.102 19.0682 108.321 20.089 108.321 21.2756V31H104.085V22.0312C104.092 21.0966 103.853 20.3674 103.369 19.8438C102.885 19.3134 102.219 19.0483 101.37 19.0483C100.8 19.0483 100.297 19.1709 99.859 19.4162C99.4281 19.6615 99.0901 20.0194 98.8448 20.4901C98.6062 20.9541 98.4835 21.5142 98.4769 22.1705ZM118.54 37.0455C117.168 37.0455 115.991 36.8565 115.01 36.4787C114.036 36.1075 113.26 35.6004 112.683 34.9574C112.107 34.3144 111.732 33.5919 111.56 32.7898L115.477 32.2628C115.597 32.5677 115.786 32.8527 116.044 33.1179C116.303 33.383 116.644 33.5952 117.068 33.7543C117.499 33.92 118.023 34.0028 118.639 34.0028C119.561 34.0028 120.32 33.7775 120.916 33.3267C121.519 32.8826 121.821 32.1368 121.821 31.0895V28.2955H121.642C121.456 28.7197 121.178 29.1207 120.807 29.4986C120.436 29.8764 119.958 30.1847 119.375 30.4233C118.792 30.6619 118.096 30.7812 117.287 30.7812C116.14 30.7812 115.096 30.5161 114.155 29.9858C113.22 29.4489 112.474 28.6302 111.918 27.5298C111.367 26.4228 111.092 25.0241 111.092 23.3338C111.092 21.6037 111.374 20.1586 111.938 18.9986C112.501 17.8385 113.25 16.9702 114.185 16.3935C115.126 15.8168 116.157 15.5284 117.277 15.5284C118.132 15.5284 118.848 15.6742 119.425 15.9659C120.001 16.2509 120.465 16.6089 120.817 17.0398C121.175 17.464 121.45 17.8816 121.642 18.2926H121.801V15.7273H126.007V31.1491C126.007 32.4484 125.689 33.5355 125.053 34.4105C124.416 35.2855 123.535 35.9418 122.408 36.3793C121.287 36.8234 119.998 37.0455 118.54 37.0455ZM118.629 27.5994C119.312 27.5994 119.889 27.4304 120.359 27.0923C120.837 26.7476 121.201 26.2571 121.453 25.6207C121.712 24.9777 121.841 24.2088 121.841 23.3139C121.841 22.419 121.715 21.6435 121.463 20.9872C121.211 20.3243 120.847 19.8106 120.369 19.446C119.892 19.0814 119.312 18.8991 118.629 18.8991C117.933 18.8991 117.347 19.0881 116.869 19.4659C116.392 19.8371 116.031 20.3542 115.786 21.017C115.54 21.6799 115.418 22.4455 115.418 23.3139C115.418 24.1955 115.54 24.9579 115.786 25.6009C116.037 26.2372 116.399 26.7311 116.869 27.0824C117.347 27.4271 117.933 27.5994 118.629 27.5994Z" fill="#F8F9FA"/>
</svg>
