<svg width="128" height="42" viewBox="0 0 128 42" fill="none" xmlns="http://www.w3.org/2000/svg">
<path d="M0 10H23C26.3137 10 29 12.6863 29 16V32.0761H6C2.68629 32.0761 0 29.3898 0 26.0761V10Z" fill="#087F5B"/>
<path d="M46.9261 31V10.6364H51.2315V27.4503H59.9616V31H46.9261ZM62.7333 31V15.7273H66.9691V31H62.7333ZM64.8612 13.7585C64.2314 13.7585 63.6912 13.5497 63.2404 13.1321C62.7963 12.7079 62.5742 12.2008 62.5742 11.6108C62.5742 11.0275 62.7963 10.527 63.2404 10.1094C63.6912 9.68513 64.2314 9.47301 64.8612 9.47301C65.4909 9.47301 66.0278 9.68513 66.4719 10.1094C66.9227 10.527 67.1481 11.0275 67.1481 11.6108C67.1481 12.2008 66.9227 12.7079 66.4719 13.1321C66.0278 13.5497 65.4909 13.7585 64.8612 13.7585ZM84.6009 15.7273L79.2614 31H74.4886L69.1491 15.7273H73.6236L76.7955 26.6548H76.9545L80.1165 15.7273H84.6009ZM86.7685 31V15.7273H91.0043V31H86.7685ZM88.8963 13.7585C88.2666 13.7585 87.7263 13.5497 87.2756 13.1321C86.8314 12.7079 86.6094 12.2008 86.6094 11.6108C86.6094 11.0275 86.8314 10.527 87.2756 10.1094C87.7263 9.68513 88.2666 9.47301 88.8963 9.47301C89.526 9.47301 90.063 9.68513 90.5071 10.1094C90.9579 10.527 91.1832 11.0275 91.1832 11.6108C91.1832 12.2008 90.9579 12.7079 90.5071 13.1321C90.063 13.5497 89.526 13.7585 88.8963 13.7585ZM98.6332 22.1705V31H94.3974V15.7273H98.4343V18.4219H98.6133C98.9513 17.5336 99.5181 16.831 100.314 16.3139C101.109 15.7902 102.074 15.5284 103.207 15.5284C104.268 15.5284 105.192 15.7604 105.981 16.2244C106.77 16.6884 107.383 17.3513 107.821 18.2131C108.258 19.0682 108.477 20.089 108.477 21.2756V31H104.241V22.0312C104.248 21.0966 104.009 20.3674 103.525 19.8438C103.041 19.3134 102.375 19.0483 101.527 19.0483C100.957 19.0483 100.453 19.1709 100.015 19.4162C99.5844 19.6615 99.2463 20.0194 99.0011 20.4901C98.7624 20.9541 98.6398 21.5142 98.6332 22.1705ZM118.696 37.0455C117.324 37.0455 116.147 36.8565 115.166 36.4787C114.192 36.1075 113.416 35.6004 112.839 34.9574C112.263 34.3144 111.888 33.5919 111.716 32.7898L115.634 32.2628C115.753 32.5677 115.942 32.8527 116.2 33.1179C116.459 33.383 116.8 33.5952 117.224 33.7543C117.655 33.92 118.179 34.0028 118.795 34.0028C119.717 34.0028 120.476 33.7775 121.072 33.3267C121.676 32.8826 121.977 32.1368 121.977 31.0895V28.2955H121.798C121.613 28.7197 121.334 29.1207 120.963 29.4986C120.592 29.8764 120.115 30.1847 119.531 30.4233C118.948 30.6619 118.252 30.7812 117.443 30.7812C116.296 30.7812 115.252 30.5161 114.311 29.9858C113.376 29.4489 112.631 28.6302 112.074 27.5298C111.524 26.4228 111.249 25.0241 111.249 23.3338C111.249 21.6037 111.53 20.1586 112.094 18.9986C112.657 17.8385 113.406 16.9702 114.341 16.3935C115.282 15.8168 116.313 15.5284 117.433 15.5284C118.288 15.5284 119.004 15.6742 119.581 15.9659C120.158 16.2509 120.622 16.6089 120.973 17.0398C121.331 17.464 121.606 17.8816 121.798 18.2926H121.957V15.7273H126.163V31.1491C126.163 32.4484 125.845 33.5355 125.209 34.4105C124.572 35.2855 123.691 35.9418 122.564 36.3793C121.444 36.8234 120.154 37.0455 118.696 37.0455ZM118.786 27.5994C119.468 27.5994 120.045 27.4304 120.516 27.0923C120.993 26.7476 121.357 26.2571 121.609 25.6207C121.868 24.9777 121.997 24.2088 121.997 23.3139C121.997 22.419 121.871 21.6435 121.619 20.9872C121.367 20.3243 121.003 19.8106 120.526 19.446C120.048 19.0814 119.468 18.8991 118.786 18.8991C118.089 18.8991 117.503 19.0881 117.026 19.4659C116.548 19.8371 116.187 20.3542 115.942 21.017C115.696 21.6799 115.574 22.4455 115.574 23.3139C115.574 24.1955 115.696 24.9579 115.942 25.6009C116.194 26.2372 116.555 26.7311 117.026 27.0824C117.503 27.4271 118.089 27.5994 118.786 27.5994Z" fill="#212529"/>
</svg>
